<svg xmlns="http://www.w3.org/2000/svg" xmlns:xlink="http://www.w3.org/1999/xlink" version="1.1" x="0px" y="0px" viewBox="0 0 100 125" enable-background="new 0 0 100 100" xml:space="preserve"><path d="M58.395,48.921c8.775,0,15.89-7.114,15.89-15.891c-0.001-8.776-7.115-15.89-15.89-15.89c-8.775,0-15.892,7.114-15.892,15.89  C42.503,41.806,49.618,48.921,58.395,48.921z M52.068,40.665l1.451-2.813c0.112-0.22,0.319-0.257,0.508-0.175  c0.703,0.313,2.396,0.978,4.025,0.978c0.932,0,2.491-0.211,2.491-1.624c0-0.39,0-1.302-2.721-2.13  c-3.644-1.11-5.49-3.085-5.49-5.871c0-2.298,1.49-4.746,4.72-5.378v-2.167c0-0.246,0.125-0.372,0.372-0.372h1.938  c0.246,0,0.371,0.126,0.371,0.372v2.061c2.142,0.208,4.065,1.008,4.82,1.357c0.187,0.085,0.278,0.273,0.166,0.492l-1.457,2.812  c-0.111,0.22-0.32,0.257-0.508,0.175c-0.701-0.313-2.393-0.977-4.021-0.977c-0.93,0-2.49,0.211-2.49,1.625  c0,0.389,0,1.302,2.72,2.131c3.644,1.109,5.492,3.084,5.492,5.87c0,2.299-1.492,4.746-4.722,5.378v2.166  c0,0.247-0.125,0.373-0.371,0.373h-1.938c-0.247,0-0.372-0.126-0.372-0.373v-2.06c-2.141-0.208-4.064-1.008-4.82-1.357  C52.045,41.072,51.955,40.885,52.068,40.665z"/><path d="M94.71,61.969l-0.048-0.127c-0.707-1.886-2.557-3.252-4.99-2.738l-16.047,3.379c0.018,4.07-3.32,7.228-7.893,7.418  l-6.021,0.25c-8.461,0.354-12.904,2.496-12.948,2.519L45.581,70.3c0,0,4.76-2.407,14.021-2.795l5.58-0.231  c3.406-0.144,5.906-2.416,5.803-4.924l-0.002-0.033c-0.104-2.51-2.784-4.565-6.192-4.424l-6.901,0.289  c-9.556,0.396-12.811-3.484-19.353-3.211c-6.362,0.266-13.315,3.535-16.066,4.963c-0.434,0.225-0.78,0.662-0.78,1.297V76.76  c0,0.635,0.39,0.952,0.869,1.038l24.24,4.312c7.488,1.332,9.807,1.047,16.747-2.064l29.06-13.029  C94.875,65.999,95.419,63.855,94.71,61.969z"/><path d="M15.529,54.107H7.207c-1.706,0-2.207,0.5-2.207,2.207v22.512c0,1.706,0.501,2.206,2.207,2.206h8.322  c1.706,0,2.207-0.5,2.207-2.206V56.314C17.736,54.607,17.235,54.107,15.529,54.107z"/><text x="0" y="115" fill="#000000" font-size="5px" font-weight="bold" font-family="'Helvetica Neue', Helvetica, Arial-Unicode, Arial, Sans-serif">Created by David Khai</text><text x="0" y="120" fill="#000000" font-size="5px" font-weight="bold" font-family="'Helvetica Neue', Helvetica, Arial-Unicode, Arial, Sans-serif">from the Noun Project</text></svg>